<svg xmlns="http://www.w3.org/2000/svg" width="512" height="512" viewBox="0 0 512 512" version="1.1"><path d="" stroke="none" fill="#fff" fill-rule="evenodd"/><path d="M 413.683 53.062 C 406.115 54.915, 397.805 62.436, 394.449 70.468 C 392.568 74.970, 392.599 83.104, 394.514 87.687 C 395.346 89.679, 399.685 95.783, 404.156 101.251 C 434.124 137.902, 452.832 181.685, 459.170 230 C 460.895 243.152, 460.585 275.779, 458.600 290 C 452.162 336.117, 436.504 373.332, 407.177 412.221 C 398.355 423.920, 396.421 428.656, 397.509 435.905 C 398.470 442.318, 401.039 446.827, 406.800 452.216 C 415.288 460.156, 424.610 461.678, 434.853 456.796 C 442.085 453.350, 460.789 428.409, 474.686 403.683 C 493.501 370.204, 507.621 325.376, 510.749 289.190 L 511.500 280.500 512.041 295.500 C 512.338 303.750, 512.581 286.650, 512.579 257.500 C 512.578 228.350, 512.335 211.700, 512.039 220.500 L 511.500 236.500 510.684 227.500 C 507.428 191.560, 493.981 148.402, 475.789 115.500 C 460.645 88.111, 439.183 59.774, 429.977 55.013 C 425.487 52.691, 418.575 51.863, 413.683 53.062 M 226.994 78.876 C 221.252 80.756, 215.711 85.113, 154.500 135.883 L 90.500 188.966 54.218 188.983 C 14.223 189.002, 13.651 189.078, 7.165 195.301 C 0.721 201.482, 1 198.604, 1 258.811 L 1 313.721 3.628 317.594 C 6.839 322.326, 8.242 323.504, 14 326.308 C 18.316 328.410, 20.002 328.520, 55.212 329 L 91.925 329.500 154.560 381.500 C 189.010 410.100, 219.453 434.738, 222.212 436.250 C 228.043 439.447, 235.539 439.926, 241.400 437.477 C 246.929 435.167, 252.669 429.427, 254.692 424.186 C 256.409 419.735, 256.500 411.421, 256.500 258.500 C 256.500 84.599, 256.808 94.752, 251.306 87.272 C 246.391 80.590, 234.403 76.450, 226.994 78.876 M 331.910 133.317 C 321.482 137.202, 313 148.416, 313 158.319 C 313 164.887, 314.616 168.476, 322.765 180 C 338.896 202.815, 346.495 224.937, 347.669 252.500 C 348.874 280.811, 342.297 306.632, 328.240 328.770 C 317.780 345.243, 317.501 345.875, 317.539 353 C 317.582 361.020, 319.840 365.706, 326.800 372.216 C 336.050 380.868, 348.188 381.993, 357.728 375.082 C 362.684 371.492, 374.377 353.632, 381.497 338.778 C 412.012 275.111, 403.610 199.158, 359.863 143.217 C 352.583 133.909, 341.171 129.867, 331.910 133.317" stroke="none" fill="#ccc" fill-rule="evenodd"/></svg>