<svg width="512" height="512" viewBox="0 0 512 512" fill="none" xmlns="http://www.w3.org/2000/svg">
<path fill-rule="evenodd" clip-rule="evenodd" d="M303.996 76.7001C298.254 78.5801 292.713 82.9371 231.502 133.707L167.502 186.79L131.22 186.807C91.2248 186.826 90.6528 186.902 84.1668 193.125C77.7228 199.306 78.0018 196.428 78.0018 256.635V311.545L80.6298 315.418C83.8408 320.15 85.2438 321.328 91.0018 324.132C95.3178 326.234 97.0038 326.344 132.214 326.824L168.927 327.324L231.562 379.324C266.012 407.924 296.455 432.562 299.214 434.074C305.045 437.271 312.541 437.75 318.402 435.301C323.931 432.991 329.671 427.251 331.694 422.01C333.411 417.559 333.502 409.245 333.502 256.324C333.502 82.4231 333.81 92.5761 328.308 85.0961C323.393 78.4141 311.405 74.2741 303.996 76.7001Z" fill="#ccc"/>
<rect x="458.865" y="15.8652" width="52" height="625.789" rx="26" transform="rotate(45 458.865 15.8652)" fill="#ccc"/>
</svg>
